<mxfile host="Electron" modified="2024-04-29T17:37:46.536Z" agent="Mozilla/5.0 (Windows NT 10.0; Win64; x64) AppleWebKit/537.36 (KHTML, like Gecko) draw.io/24.0.4 Chrome/120.0.6099.109 Electron/28.1.0 Safari/537.36" etag="6DSdHVRATmvdot9PC3Jg" version="24.0.4" type="device">
  <diagram name="Page-1" id="prusZaLLIF9cg53aOoqo">
    <mxGraphModel dx="2284" dy="836" grid="1" gridSize="10" guides="1" tooltips="1" connect="1" arrows="1" fold="1" page="1" pageScale="1" pageWidth="850" pageHeight="1100" math="0" shadow="0">
      <root>
        <mxCell id="0" />
        <mxCell id="1" parent="0" />
        <mxCell id="zmVqj1DKt-LBbQfouzSs-1" value="&lt;font style=&quot;font-size: 15px;&quot;&gt;Người dùng&lt;/font&gt;" style="shape=umlActor;verticalLabelPosition=bottom;verticalAlign=top;html=1;outlineConnect=0;" vertex="1" parent="1">
          <mxGeometry x="30.5" y="10" width="40" height="70" as="geometry" />
        </mxCell>
        <mxCell id="zmVqj1DKt-LBbQfouzSs-2" value="GUI" style="rounded=1;whiteSpace=wrap;html=1;" vertex="1" parent="1">
          <mxGeometry x="180" y="30" width="120" height="60" as="geometry" />
        </mxCell>
        <mxCell id="zmVqj1DKt-LBbQfouzSs-3" value="CONTROLLER" style="rounded=1;whiteSpace=wrap;html=1;" vertex="1" parent="1">
          <mxGeometry x="410" y="30" width="120" height="60" as="geometry" />
        </mxCell>
        <mxCell id="zmVqj1DKt-LBbQfouzSs-4" value="SERVER" style="rounded=1;whiteSpace=wrap;html=1;" vertex="1" parent="1">
          <mxGeometry x="670" y="30" width="120" height="60" as="geometry" />
        </mxCell>
        <mxCell id="zmVqj1DKt-LBbQfouzSs-7" value="" style="endArrow=none;dashed=1;html=1;rounded=0;entryX=0.5;entryY=0.5;entryDx=0;entryDy=0;entryPerimeter=0;" edge="1" parent="1" source="zmVqj1DKt-LBbQfouzSs-14" target="zmVqj1DKt-LBbQfouzSs-1">
          <mxGeometry width="50" height="50" relative="1" as="geometry">
            <mxPoint x="50" y="550" as="sourcePoint" />
            <mxPoint x="70" y="180" as="targetPoint" />
          </mxGeometry>
        </mxCell>
        <mxCell id="zmVqj1DKt-LBbQfouzSs-9" value="" style="endArrow=none;dashed=1;html=1;rounded=0;entryX=0.5;entryY=1;entryDx=0;entryDy=0;" edge="1" parent="1" target="zmVqj1DKt-LBbQfouzSs-2">
          <mxGeometry width="50" height="50" relative="1" as="geometry">
            <mxPoint x="240" y="550" as="sourcePoint" />
            <mxPoint x="239.5" y="100" as="targetPoint" />
          </mxGeometry>
        </mxCell>
        <mxCell id="zmVqj1DKt-LBbQfouzSs-10" value="" style="endArrow=none;dashed=1;html=1;rounded=0;entryX=0.5;entryY=1;entryDx=0;entryDy=0;" edge="1" parent="1" target="zmVqj1DKt-LBbQfouzSs-3">
          <mxGeometry width="50" height="50" relative="1" as="geometry">
            <mxPoint x="469.5" y="560" as="sourcePoint" />
            <mxPoint x="469.5" y="100" as="targetPoint" />
          </mxGeometry>
        </mxCell>
        <mxCell id="zmVqj1DKt-LBbQfouzSs-11" value="" style="endArrow=none;dashed=1;html=1;rounded=0;" edge="1" parent="1" source="zmVqj1DKt-LBbQfouzSs-18" target="zmVqj1DKt-LBbQfouzSs-4">
          <mxGeometry width="50" height="50" relative="1" as="geometry">
            <mxPoint x="729.5" y="560" as="sourcePoint" />
            <mxPoint x="730" y="90" as="targetPoint" />
          </mxGeometry>
        </mxCell>
        <mxCell id="zmVqj1DKt-LBbQfouzSs-13" value="Đăng nhập" style="shape=umlFrame;whiteSpace=wrap;html=1;pointerEvents=0;width=70;height=30;" vertex="1" parent="1">
          <mxGeometry x="-70" y="120" width="930" height="380" as="geometry" />
        </mxCell>
        <mxCell id="zmVqj1DKt-LBbQfouzSs-15" value="" style="endArrow=none;dashed=1;html=1;rounded=0;entryX=0.5;entryY=0.5;entryDx=0;entryDy=0;entryPerimeter=0;" edge="1" parent="1" target="zmVqj1DKt-LBbQfouzSs-14">
          <mxGeometry width="50" height="50" relative="1" as="geometry">
            <mxPoint x="50" y="550" as="sourcePoint" />
            <mxPoint x="50" y="55" as="targetPoint" />
          </mxGeometry>
        </mxCell>
        <mxCell id="zmVqj1DKt-LBbQfouzSs-20" style="edgeStyle=orthogonalEdgeStyle;rounded=0;orthogonalLoop=1;jettySize=auto;html=1;curved=0;horizontal=1;verticalAlign=top;" edge="1" parent="1">
          <mxGeometry relative="1" as="geometry">
            <mxPoint x="58" y="150" as="sourcePoint" />
            <mxPoint x="232.5" y="150" as="targetPoint" />
          </mxGeometry>
        </mxCell>
        <mxCell id="zmVqj1DKt-LBbQfouzSs-23" value="Gửi username, pasword" style="edgeLabel;html=1;align=center;verticalAlign=middle;resizable=0;points=[];" vertex="1" connectable="0" parent="zmVqj1DKt-LBbQfouzSs-20">
          <mxGeometry x="-0.0487" y="4" relative="1" as="geometry">
            <mxPoint as="offset" />
          </mxGeometry>
        </mxCell>
        <mxCell id="zmVqj1DKt-LBbQfouzSs-14" value="" style="html=1;points=[[0,0,0,0,5],[0,1,0,0,-5],[1,0,0,0,5],[1,1,0,0,-5]];perimeter=orthogonalPerimeter;outlineConnect=0;targetShapes=umlLifeline;portConstraint=eastwest;newEdgeStyle={&quot;curved&quot;:0,&quot;rounded&quot;:0};" vertex="1" parent="1">
          <mxGeometry x="43" y="110" width="15" height="400" as="geometry" />
        </mxCell>
        <mxCell id="zmVqj1DKt-LBbQfouzSs-16" value="" style="html=1;points=[[0,0,0,0,5],[0,1,0,0,-5],[1,0,0,0,5],[1,1,0,0,-5]];perimeter=orthogonalPerimeter;outlineConnect=0;targetShapes=umlLifeline;portConstraint=eastwest;newEdgeStyle={&quot;curved&quot;:0,&quot;rounded&quot;:0};" vertex="1" parent="1">
          <mxGeometry x="232.5" y="110" width="15" height="320" as="geometry" />
        </mxCell>
        <mxCell id="zmVqj1DKt-LBbQfouzSs-17" value="" style="html=1;points=[[0,0,0,0,5],[0,1,0,0,-5],[1,0,0,0,5],[1,1,0,0,-5]];perimeter=orthogonalPerimeter;outlineConnect=0;targetShapes=umlLifeline;portConstraint=eastwest;newEdgeStyle={&quot;curved&quot;:0,&quot;rounded&quot;:0};" vertex="1" parent="1">
          <mxGeometry x="462.5" y="110" width="15" height="320" as="geometry" />
        </mxCell>
        <mxCell id="zmVqj1DKt-LBbQfouzSs-19" value="" style="endArrow=none;dashed=1;html=1;rounded=0;" edge="1" parent="1" target="zmVqj1DKt-LBbQfouzSs-18">
          <mxGeometry width="50" height="50" relative="1" as="geometry">
            <mxPoint x="729.5" y="560" as="sourcePoint" />
            <mxPoint x="730" y="90" as="targetPoint" />
          </mxGeometry>
        </mxCell>
        <mxCell id="zmVqj1DKt-LBbQfouzSs-18" value="" style="html=1;points=[[0,0,0,0,5],[0,1,0,0,-5],[1,0,0,0,5],[1,1,0,0,-5]];perimeter=orthogonalPerimeter;outlineConnect=0;targetShapes=umlLifeline;portConstraint=eastwest;newEdgeStyle={&quot;curved&quot;:0,&quot;rounded&quot;:0};" vertex="1" parent="1">
          <mxGeometry x="722.5" y="140" width="15" height="270" as="geometry" />
        </mxCell>
        <mxCell id="zmVqj1DKt-LBbQfouzSs-21" style="edgeStyle=orthogonalEdgeStyle;rounded=0;orthogonalLoop=1;jettySize=auto;html=1;curved=0;" edge="1" parent="1" target="zmVqj1DKt-LBbQfouzSs-17">
          <mxGeometry relative="1" as="geometry">
            <mxPoint x="251" y="160" as="sourcePoint" />
            <mxPoint x="425.5" y="160" as="targetPoint" />
            <Array as="points">
              <mxPoint x="300" y="160" />
              <mxPoint x="300" y="160" />
            </Array>
          </mxGeometry>
        </mxCell>
        <mxCell id="zmVqj1DKt-LBbQfouzSs-26" value="Yêu cầu đăng nhập" style="edgeLabel;html=1;align=center;verticalAlign=middle;resizable=0;points=[];" vertex="1" connectable="0" parent="zmVqj1DKt-LBbQfouzSs-21">
          <mxGeometry x="-0.0165" y="-1" relative="1" as="geometry">
            <mxPoint y="-6" as="offset" />
          </mxGeometry>
        </mxCell>
        <mxCell id="zmVqj1DKt-LBbQfouzSs-22" style="edgeStyle=orthogonalEdgeStyle;rounded=0;orthogonalLoop=1;jettySize=auto;html=1;curved=0;" edge="1" parent="1">
          <mxGeometry relative="1" as="geometry">
            <mxPoint x="480" y="168" as="sourcePoint" />
            <mxPoint x="722.5" y="169" as="targetPoint" />
            <Array as="points">
              <mxPoint x="480" y="169" />
            </Array>
          </mxGeometry>
        </mxCell>
        <mxCell id="zmVqj1DKt-LBbQfouzSs-28" value="Gửi username, pasword" style="edgeLabel;html=1;align=center;verticalAlign=middle;resizable=0;points=[];" vertex="1" connectable="0" parent="1">
          <mxGeometry x="600" y="160" as="geometry" />
        </mxCell>
        <mxCell id="zmVqj1DKt-LBbQfouzSs-57" value="" style="group" vertex="1" connectable="0" parent="1">
          <mxGeometry x="-30" y="276" width="840" height="180" as="geometry" />
        </mxCell>
        <mxCell id="zmVqj1DKt-LBbQfouzSs-29" style="edgeStyle=orthogonalEdgeStyle;rounded=0;orthogonalLoop=1;jettySize=auto;html=1;curved=0;dashed=1;" edge="1" parent="zmVqj1DKt-LBbQfouzSs-57">
          <mxGeometry relative="1" as="geometry">
            <mxPoint x="752.5" y="25" as="sourcePoint" />
            <mxPoint x="507.5" y="25" as="targetPoint" />
          </mxGeometry>
        </mxCell>
        <mxCell id="zmVqj1DKt-LBbQfouzSs-30" value="Sai tài khoản, mật khẩu" style="edgeLabel;html=1;align=center;verticalAlign=middle;resizable=0;points=[];" vertex="1" connectable="0" parent="zmVqj1DKt-LBbQfouzSs-29">
          <mxGeometry x="-0.0163" y="-2" relative="1" as="geometry">
            <mxPoint x="1" as="offset" />
          </mxGeometry>
        </mxCell>
        <mxCell id="zmVqj1DKt-LBbQfouzSs-31" style="edgeStyle=orthogonalEdgeStyle;rounded=0;orthogonalLoop=1;jettySize=auto;html=1;curved=0;dashed=1;" edge="1" parent="zmVqj1DKt-LBbQfouzSs-57">
          <mxGeometry relative="1" as="geometry">
            <mxPoint x="489" y="33" as="sourcePoint" />
            <mxPoint x="276.5" y="33" as="targetPoint" />
          </mxGeometry>
        </mxCell>
        <mxCell id="zmVqj1DKt-LBbQfouzSs-32" value="Sai tài khoản, mật khẩu" style="edgeLabel;html=1;align=center;verticalAlign=middle;resizable=0;points=[];" vertex="1" connectable="0" parent="zmVqj1DKt-LBbQfouzSs-31">
          <mxGeometry x="-0.0163" y="-2" relative="1" as="geometry">
            <mxPoint x="1" as="offset" />
          </mxGeometry>
        </mxCell>
        <mxCell id="zmVqj1DKt-LBbQfouzSs-34" style="edgeStyle=orthogonalEdgeStyle;rounded=0;orthogonalLoop=1;jettySize=auto;html=1;curved=0;dashed=1;" edge="1" parent="zmVqj1DKt-LBbQfouzSs-57">
          <mxGeometry relative="1" as="geometry">
            <mxPoint x="260" y="45" as="sourcePoint" />
            <mxPoint x="90" y="44.5" as="targetPoint" />
          </mxGeometry>
        </mxCell>
        <mxCell id="zmVqj1DKt-LBbQfouzSs-35" value="Thông bao sai&amp;nbsp;&lt;div&gt;tài khoản, mật khẩu&lt;/div&gt;" style="edgeLabel;html=1;align=center;verticalAlign=middle;resizable=0;points=[];fontSize=11;" vertex="1" connectable="0" parent="zmVqj1DKt-LBbQfouzSs-34">
          <mxGeometry x="-0.0163" y="-2" relative="1" as="geometry">
            <mxPoint x="1" as="offset" />
          </mxGeometry>
        </mxCell>
        <mxCell id="zmVqj1DKt-LBbQfouzSs-36" value="frame" style="shape=umlFrame;whiteSpace=wrap;html=1;pointerEvents=0;" vertex="1" parent="zmVqj1DKt-LBbQfouzSs-57">
          <mxGeometry width="840" height="180" as="geometry" />
        </mxCell>
        <mxCell id="zmVqj1DKt-LBbQfouzSs-38" style="edgeStyle=orthogonalEdgeStyle;rounded=0;orthogonalLoop=1;jettySize=auto;html=1;curved=0;dashed=1;exitX=1;exitY=0.497;exitDx=0;exitDy=0;exitPerimeter=0;endArrow=none;endFill=0;" edge="1" parent="zmVqj1DKt-LBbQfouzSs-57" source="zmVqj1DKt-LBbQfouzSs-36">
          <mxGeometry relative="1" as="geometry">
            <mxPoint x="170" y="90" as="sourcePoint" />
            <mxPoint y="89.5" as="targetPoint" />
            <Array as="points">
              <mxPoint x="220" y="90" />
              <mxPoint x="220" y="90" />
            </Array>
          </mxGeometry>
        </mxCell>
        <mxCell id="zmVqj1DKt-LBbQfouzSs-49" style="edgeStyle=orthogonalEdgeStyle;rounded=0;orthogonalLoop=1;jettySize=auto;html=1;curved=0;dashed=1;" edge="1" parent="zmVqj1DKt-LBbQfouzSs-57">
          <mxGeometry relative="1" as="geometry">
            <mxPoint x="752.5" y="120" as="sourcePoint" />
            <mxPoint x="507.5" y="120" as="targetPoint" />
          </mxGeometry>
        </mxCell>
        <mxCell id="zmVqj1DKt-LBbQfouzSs-50" value="Tài khoản mật khẩu chính xác" style="edgeLabel;html=1;align=center;verticalAlign=middle;resizable=0;points=[];" vertex="1" connectable="0" parent="zmVqj1DKt-LBbQfouzSs-49">
          <mxGeometry x="-0.0163" y="-2" relative="1" as="geometry">
            <mxPoint x="1" as="offset" />
          </mxGeometry>
        </mxCell>
        <mxCell id="zmVqj1DKt-LBbQfouzSs-51" style="edgeStyle=orthogonalEdgeStyle;rounded=0;orthogonalLoop=1;jettySize=auto;html=1;curved=0;dashed=1;" edge="1" parent="zmVqj1DKt-LBbQfouzSs-57">
          <mxGeometry relative="1" as="geometry">
            <mxPoint x="489" y="128" as="sourcePoint" />
            <mxPoint x="276.5" y="128" as="targetPoint" />
          </mxGeometry>
        </mxCell>
        <mxCell id="zmVqj1DKt-LBbQfouzSs-52" value="Tài khoản mật khẩu chính xác" style="edgeLabel;html=1;align=center;verticalAlign=middle;resizable=0;points=[];" vertex="1" connectable="0" parent="zmVqj1DKt-LBbQfouzSs-51">
          <mxGeometry x="-0.0163" y="-2" relative="1" as="geometry">
            <mxPoint x="1" as="offset" />
          </mxGeometry>
        </mxCell>
        <mxCell id="zmVqj1DKt-LBbQfouzSs-53" style="edgeStyle=orthogonalEdgeStyle;rounded=0;orthogonalLoop=1;jettySize=auto;html=1;curved=0;dashed=1;" edge="1" parent="zmVqj1DKt-LBbQfouzSs-57">
          <mxGeometry relative="1" as="geometry">
            <mxPoint x="260" y="140" as="sourcePoint" />
            <mxPoint x="90" y="139.5" as="targetPoint" />
          </mxGeometry>
        </mxCell>
        <mxCell id="zmVqj1DKt-LBbQfouzSs-54" value="Thông báo đăng nhập&amp;nbsp; thành&lt;div&gt;công và quay về trang chủ&lt;/div&gt;" style="edgeLabel;html=1;align=center;verticalAlign=middle;resizable=0;points=[];fontSize=11;" vertex="1" connectable="0" parent="zmVqj1DKt-LBbQfouzSs-53">
          <mxGeometry x="-0.0163" y="-2" relative="1" as="geometry">
            <mxPoint x="1" as="offset" />
          </mxGeometry>
        </mxCell>
        <mxCell id="zmVqj1DKt-LBbQfouzSs-58" style="edgeStyle=orthogonalEdgeStyle;rounded=0;orthogonalLoop=1;jettySize=auto;html=1;curved=0;dashed=1;" edge="1" parent="1">
          <mxGeometry relative="1" as="geometry">
            <mxPoint x="720.5" y="208" as="sourcePoint" />
            <mxPoint x="475.5" y="208" as="targetPoint" />
          </mxGeometry>
        </mxCell>
        <mxCell id="zmVqj1DKt-LBbQfouzSs-59" value="Tài khoản, mật khẩu không tồn tại" style="edgeLabel;html=1;align=center;verticalAlign=middle;resizable=0;points=[];" vertex="1" connectable="0" parent="zmVqj1DKt-LBbQfouzSs-58">
          <mxGeometry x="-0.0163" y="-2" relative="1" as="geometry">
            <mxPoint x="1" as="offset" />
          </mxGeometry>
        </mxCell>
        <mxCell id="zmVqj1DKt-LBbQfouzSs-60" style="edgeStyle=orthogonalEdgeStyle;rounded=0;orthogonalLoop=1;jettySize=auto;html=1;curved=0;dashed=1;" edge="1" parent="1">
          <mxGeometry relative="1" as="geometry">
            <mxPoint x="457" y="216" as="sourcePoint" />
            <mxPoint x="244.5" y="216" as="targetPoint" />
          </mxGeometry>
        </mxCell>
        <mxCell id="zmVqj1DKt-LBbQfouzSs-61" value="Tài khoản, mật khẩu không tồn tại" style="edgeLabel;html=1;align=center;verticalAlign=middle;resizable=0;points=[];" vertex="1" connectable="0" parent="zmVqj1DKt-LBbQfouzSs-60">
          <mxGeometry x="-0.0163" y="-2" relative="1" as="geometry">
            <mxPoint x="1" as="offset" />
          </mxGeometry>
        </mxCell>
        <mxCell id="zmVqj1DKt-LBbQfouzSs-62" style="edgeStyle=orthogonalEdgeStyle;rounded=0;orthogonalLoop=1;jettySize=auto;html=1;curved=0;dashed=1;" edge="1" parent="1">
          <mxGeometry relative="1" as="geometry">
            <mxPoint x="228" y="228" as="sourcePoint" />
            <mxPoint x="58" y="227.5" as="targetPoint" />
          </mxGeometry>
        </mxCell>
        <mxCell id="zmVqj1DKt-LBbQfouzSs-63" value="Thông báo không tồn tại&amp;nbsp;&lt;div&gt;tài khoản, mật khẩu&amp;nbsp;&lt;br&gt;&lt;/div&gt;" style="edgeLabel;html=1;align=center;verticalAlign=middle;resizable=0;points=[];fontSize=11;" vertex="1" connectable="0" parent="zmVqj1DKt-LBbQfouzSs-62">
          <mxGeometry x="-0.0163" y="-2" relative="1" as="geometry">
            <mxPoint x="1" as="offset" />
          </mxGeometry>
        </mxCell>
        <mxCell id="zmVqj1DKt-LBbQfouzSs-79" style="edgeStyle=orthogonalEdgeStyle;rounded=0;orthogonalLoop=1;jettySize=auto;html=1;curved=0;dashed=1;exitX=1;exitY=0.497;exitDx=0;exitDy=0;exitPerimeter=0;endArrow=none;endFill=0;entryX=0.001;entryY=0.363;entryDx=0;entryDy=0;entryPerimeter=0;" edge="1" parent="1" target="zmVqj1DKt-LBbQfouzSs-13">
          <mxGeometry relative="1" as="geometry">
            <mxPoint x="780" y="260" as="sourcePoint" />
            <mxPoint x="-60" y="260.5" as="targetPoint" />
            <Array as="points">
              <mxPoint x="860" y="260" />
              <mxPoint x="860" y="261" />
              <mxPoint x="-69" y="261" />
            </Array>
          </mxGeometry>
        </mxCell>
      </root>
    </mxGraphModel>
  </diagram>
</mxfile>
